<?xml version="1.0" encoding="iso-8859-1"?>
<!-- Uploaded to: SVG Repo, www.svgrepo.com, Generator: SVG Repo Mixer Tools -->
<svg height="800px" width="800px" version="1.1" id="Layer_1" xmlns="http://www.w3.org/2000/svg" xmlns:xlink="http://www.w3.org/1999/xlink" 
	 viewBox="0 0 512 512" xml:space="preserve">
<path style="fill:#E6FFBD;" d="M357.137,8.978L26.444,125.447l108.026,0.003l256.828-46.576l-22.68-64.396
	C366.968,9.789,361.828,7.326,357.137,8.978z"/>
<path style="fill:#D2FF87;" d="M443.758,61.932c-0.928-4.884-5.641-8.091-10.526-7.162L62.454,125.265l393.38,0.182L443.758,61.932z
	"/>
<path style="fill:#9B735A;" d="M467.552,503.544H26.444c-9.944,0-18.004-8.06-18.004-18.004V143.456
	c0-9.944,8.06-18.004,18.004-18.004h441.108c9.944,0,18.004,8.06,18.004,18.004V485.54
	C485.556,495.483,477.496,503.544,467.552,503.544z"/>
<path style="fill:#8C5F50;" d="M494.558,269.486h-36.571V161.481c0-4.661-3.779-8.44-8.44-8.44H53.451v-9.586
	c0-9.944,8.061-18.004,18.004-18.004H26.444c-9.943,0-18.004,8.06-18.004,18.004v342.084c0,9.943,8.061,18.004,18.004,18.004h45.011
	c-9.943,0-18.004-8.061-18.004-18.004v-9.543h396.097c4.661,0,8.44-3.779,8.44-8.44V359.508h36.571c4.971,0,9.002-4.031,9.002-9.002
	v-72.018C503.56,273.518,499.53,269.486,494.558,269.486z M441.108,459.116H53.451V169.92h387.657v99.565h-18.567
	c-24.858,0-45.011,20.153-45.011,45.011l0,0c0,24.858,20.153,45.011,45.011,45.011h18.567V459.116z"/>
<path d="M494.558,261.046h-0.563V143.455c0-14.581-11.863-26.444-26.444-26.444h-4.731l-10.772-56.656
	c-0.87-4.576-3.47-8.541-7.322-11.162s-8.494-3.585-13.07-2.715l-40.132,7.63L376.58,11.675c-1.547-4.394-4.714-7.923-8.916-9.936
	c-4.201-2.013-8.934-2.27-13.33-0.721L24.839,117.065C11.003,117.898,0,129.413,0,143.455v342.084
	c0,14.581,11.863,26.444,26.444,26.444h441.108c14.581,0,26.444-11.863,26.444-26.444V367.947h0.563
	c9.618,0,17.442-7.824,17.442-17.442v-72.018C512,268.871,504.176,261.046,494.558,261.046z M359.94,16.938
	c0.055-0.019,0.218-0.078,0.43,0.024c0.21,0.1,0.268,0.267,0.287,0.321l14.094,40.016l-16.807,3.195
	c-4.579,0.871-7.585,5.289-6.715,9.868c0.871,4.579,5.287,7.587,9.868,6.715l73.711-14.015c0.056-0.01,0.228-0.044,0.422,0.088
	c0.194,0.132,0.226,0.304,0.236,0.36l10.172,53.503H151.043l174.055-33.092c4.579-0.87,7.585-5.288,6.715-9.868
	c-0.871-4.579-5.287-7.588-9.868-6.715l-228.4,43.425L359.94,16.938z M477.117,485.538c0,5.274-4.291,9.565-9.565,9.565H26.444
	c-5.274,0-9.565-4.291-9.565-9.565v-9.565h18.567c4.661,0,8.44-3.779,8.44-8.44s-3.779-8.44-8.44-8.44H16.879V169.899h18.567
	c4.661,0,8.44-3.779,8.44-8.44s-3.779-8.44-8.44-8.44H16.879v-9.565c0-5.274,4.291-9.565,9.565-9.565h441.108
	c5.274,0,9.565,4.291,9.565,9.565v117.591h-54.576c-29.472,0-53.451,23.978-53.451,53.451s23.978,53.451,53.451,53.451h54.576
	V485.538z M495.121,350.506c0,0.309-0.252,0.563-0.563,0.563h-72.018c-20.165,0-36.571-16.406-36.571-36.571
	c0-20.166,16.406-36.571,36.571-36.571h72.018c0.311,0,0.563,0.253,0.563,0.563V350.506z"/>
<path d="M89.459,459.095H71.455c-4.661,0-8.44,3.779-8.44,8.44s3.779,8.44,8.44,8.44h18.004c4.661,0,8.44-3.779,8.44-8.44
	S94.12,459.095,89.459,459.095z"/>
<path d="M89.459,153.02H71.455c-4.661,0-8.44,3.779-8.44,8.44c0,4.661,3.779,8.44,8.44,8.44h18.004c4.661,0,8.44-3.779,8.44-8.44
	C97.899,156.798,94.12,153.02,89.459,153.02z"/>
<path d="M143.473,459.095h-18.004c-4.661,0-8.44,3.779-8.44,8.44s3.779,8.44,8.44,8.44h18.004c4.661,0,8.44-3.779,8.44-8.44
	S148.133,459.095,143.473,459.095z"/>
<path d="M143.473,153.02h-18.004c-4.661,0-8.44,3.779-8.44,8.44c0,4.661,3.779,8.44,8.44,8.44h18.004c4.661,0,8.44-3.779,8.44-8.44
	C151.912,156.798,148.133,153.02,143.473,153.02z"/>
<path d="M197.486,459.095h-18.004c-4.661,0-8.44,3.779-8.44,8.44s3.779,8.44,8.44,8.44h18.004c4.661,0,8.44-3.779,8.44-8.44
	S202.147,459.095,197.486,459.095z"/>
<path d="M179.481,169.899h18.004c4.661,0,8.44-3.779,8.44-8.44c0-4.661-3.779-8.44-8.44-8.44h-18.004c-4.661,0-8.44,3.779-8.44,8.44
	C171.042,166.12,174.82,169.899,179.481,169.899z"/>
<path d="M251.499,459.095h-18.004c-4.661,0-8.44,3.779-8.44,8.44s3.779,8.44,8.44,8.44h18.004c4.661,0,8.44-3.779,8.44-8.44
	S256.16,459.095,251.499,459.095z"/>
<path d="M233.495,169.899h18.004c4.661,0,8.44-3.779,8.44-8.44c0-4.661-3.779-8.44-8.44-8.44h-18.004c-4.661,0-8.44,3.779-8.44,8.44
	C225.055,166.12,228.834,169.899,233.495,169.899z"/>
<path d="M305.512,459.095h-18.004c-4.661,0-8.44,3.779-8.44,8.44s3.779,8.44,8.44,8.44h18.004c4.661,0,8.44-3.779,8.44-8.44
	S310.173,459.095,305.512,459.095z"/>
<path d="M305.512,153.02h-18.004c-4.661,0-8.44,3.779-8.44,8.44c0,4.661,3.779,8.44,8.44,8.44h18.004c4.661,0,8.44-3.779,8.44-8.44
	C313.952,156.798,310.173,153.02,305.512,153.02z"/>
<path d="M359.525,459.095h-18.004c-4.661,0-8.44,3.779-8.44,8.44s3.779,8.44,8.44,8.44h18.004c4.661,0,8.44-3.779,8.44-8.44
	S364.186,459.095,359.525,459.095z"/>
<path d="M359.525,153.02h-18.004c-4.661,0-8.44,3.779-8.44,8.44c0,4.661,3.779,8.44,8.44,8.44h18.004c4.661,0,8.44-3.779,8.44-8.44
	C367.965,156.798,364.186,153.02,359.525,153.02z"/>
<path d="M413.538,459.095h-18.004c-4.661,0-8.44,3.779-8.44,8.44s3.779,8.44,8.44,8.44h18.004c4.661,0,8.44-3.779,8.44-8.44
	S418.199,459.095,413.538,459.095z"/>
<path d="M395.534,169.899h18.004c4.661,0,8.44-3.779,8.44-8.44c0-4.661-3.779-8.44-8.44-8.44h-18.004c-4.661,0-8.44,3.779-8.44,8.44
	C387.095,166.12,390.873,169.899,395.534,169.899z"/>
<path d="M449.547,475.974c4.661,0,8.44-3.779,8.44-8.44V449.53c0-4.661-3.779-8.44-8.44-8.44s-8.44,3.779-8.44,8.44v18.004
	C441.108,472.196,444.886,475.974,449.547,475.974z"/>
<path d="M449.547,187.903c4.661,0,8.44-3.779,8.44-8.44v-18.004c0-4.661-3.779-8.44-8.44-8.44s-8.44,3.779-8.44,8.44v18.004
	C441.108,184.126,444.886,187.903,449.547,187.903z"/>
<path d="M449.547,241.916c4.661,0,8.44-3.779,8.44-8.44v-18.004c0-4.661-3.779-8.44-8.44-8.44s-8.44,3.779-8.44,8.44v18.004
	C441.108,238.139,444.886,241.916,449.547,241.916z"/>
<path d="M449.547,421.96c4.661,0,8.44-3.779,8.44-8.44v-18.004c0-4.661-3.779-8.44-8.44-8.44s-8.44,3.779-8.44,8.44v18.004
	C441.108,418.183,444.886,421.96,449.547,421.96z"/>
<path d="M422.541,297.055c-9.618,0-17.442,7.824-17.442,17.442c0,9.618,7.824,17.442,17.442,17.442s17.442-7.824,17.442-17.442
	C439.982,304.879,432.158,297.055,422.541,297.055z"/>
<path d="M178.919,360.07c0-4.661-3.779-8.44-8.44-8.44s-8.44,3.779-8.44,8.44c0,22.851,27.068,41.094,63.015,43.584v9.866
	c0,4.661,3.779,8.44,8.44,8.44c4.661,0,8.44-3.779,8.44-8.44v-9.866c35.947-2.491,63.015-20.734,63.015-43.584
	c0-30.612-29.107-42.558-63.015-52.017v-65.798c27.575,2.217,46.136,15.045,46.136,26.668c0,4.661,3.779,8.44,8.44,8.44
	c4.661,0,8.44-3.779,8.44-8.44c0-22.851-27.068-41.094-63.015-43.584v-9.866c0-4.661-3.779-8.44-8.44-8.44
	c-4.661,0-8.44,3.779-8.44,8.44v9.866c-35.947,2.491-63.015,20.734-63.015,43.584c0,30.612,29.107,42.558,63.015,52.017v65.798
	C197.48,384.523,178.919,371.694,178.919,360.07z M288.07,360.07c0,11.623-18.561,24.451-46.136,26.668v-61.105
	C276.164,335.746,288.07,344.932,288.07,360.07z M178.919,268.923c0-11.623,18.561-24.451,46.136-26.668v61.105
	C190.825,293.248,178.919,284.063,178.919,268.923z"/>
</svg>